<svg xmlns="http://www.w3.org/2000/svg" version="1.1" xmlns:xlink="http://www.w3.org/1999/xlink" xmlns:svgjs="http://svgjs.com/svgjs" width="1000" height="1000"><rect width="1000" height="1000" rx="500" ry="500" fill="#00eeff"></rect><g transform="matrix(1,0,0,1,0,0)"><svg xmlns="http://www.w3.org/2000/svg" version="1.1" xmlns:xlink="http://www.w3.org/1999/xlink" xmlns:svgjs="http://svgjs.com/svgjs" width="430.000000pt" height="317.000000pt"><svg version="1.0" xmlns="http://www.w3.org/2000/svg" width="430.000000pt" height="317.000000pt" viewBox="0 0 430.000000 317.000000" preserveAspectRatio="xMidYMid meet">

<g transform="translate(0.000000,317.000000) scale(0.100000,-0.100000)" fill="#000000" stroke="none">
<path d="M1927 2664 c-176 -32 -333 -119 -466 -259 -85 -90 -145 -194 -197
-340 -27 -76 -29 -89 -28 -240 1 -127 5 -173 20 -225 l19 -65 44 -3 c41 -3 43
-2 37 20 -4 13 -14 50 -24 83 -27 95 -23 298 7 395 101 326 364 538 700 566
89 7 189 -6 298 -41 242 -77 436 -288 503 -549 27 -106 27 -265 1 -367 -11
-41 -21 -81 -23 -89 -2 -11 7 -16 35 -18 33 -3 38 0 48 25 36 93 49 293 29
421 -38 235 -202 467 -411 584 -190 106 -384 140 -592 102z"></path>
<path d="M1827 2232 l-97 -98 117 -114 117 -115 -3 -51 c-2 -45 1 -56 27 -85
23 -26 37 -33 68 -33 22 -1 49 3 62 7 16 6 22 5 22 -5 0 -7 44 -57 98 -111 70
-70 104 -97 122 -97 18 0 50 25 112 87 l87 87 -106 108 c-59 59 -115 110 -125
114 -14 4 -16 9 -8 24 20 37 12 88 -19 122 -24 27 -36 32 -72 32 -24 0 -52 -3
-61 -8 -13 -6 -18 -4 -18 6 0 12 -211 228 -222 228 -2 0 -47 -44 -101 -98z
m268 -170 c5 -19 -1 -32 -26 -58 -52 -53 -71 -47 -169 51 l-84 85 54 55 54 55
83 -82 c45 -44 84 -92 88 -106z m293 -275 l83 -84 -51 -51 c-29 -29 -55 -52
-59 -52 -16 0 -161 158 -167 183 -5 23 -1 34 22 57 50 51 77 43 172 -53z"></path>
<path d="M1624 1793 c11 -77 35 -139 78 -203 39 -60 40 -60 89 -60 l49 0 -38
35 c-51 45 -100 139 -114 215 -10 58 -11 60 -40 60 l-30 0 6 -47z"></path>
<path d="M1763 1795 c18 -130 133 -241 267 -257 22 -3 25 1 28 30 3 29 1 32
-25 32 -16 0 -53 12 -81 26 -62 31 -107 90 -125 164 -11 46 -14 50 -41 50 -28
0 -29 -1 -23 -45z"></path>
<path d="M602 1233 c3 -25 7 -28 46 -31 l42 -3 0 -90 0 -89 35 0 35 0 0 89 0
90 43 3 c38 3 42 6 45 31 l3 27 -126 0 -126 0 3 -27z"></path>
<path d="M947 1253 c-4 -3 -7 -57 -7 -120 l0 -113 35 0 c34 0 35 1 35 41 0 38
2 41 23 35 12 -3 29 -6 38 -6 9 0 24 -16 35 -35 15 -29 24 -35 51 -35 38 0 40
6 13 40 -24 30 -25 44 -5 60 23 19 20 95 -5 120 -17 17 -33 20 -113 20 -52 0
-97 -3 -100 -7z m168 -73 c0 -23 -4 -25 -52 -28 l-53 -3 0 31 0 31 53 -3 c48
-3 52 -5 52 -28z"></path>
<path d="M1332 1148 c-29 -62 -52 -116 -52 -120 0 -5 13 -8 29 -8 21 0 32 6
36 20 5 17 15 20 72 20 56 0 66 -3 70 -20 4 -14 14 -20 34 -20 16 0 29 3 29 8
0 4 -23 58 -51 120 -50 108 -53 112 -83 112 -30 0 -34 -4 -84 -112z m115 -25
c-3 -2 -19 -3 -35 -1 l-30 3 16 39 15 39 19 -38 c11 -20 17 -39 15 -42z"></path>
<path d="M1679 1245 c-29 -16 -49 -60 -49 -107 0 -34 23 -92 40 -103 26 -16
87 -24 138 -18 48 5 52 8 52 32 0 27 0 27 -68 23 -80 -5 -97 8 -96 71 2 57 23
70 102 63 l63 -5 -3 27 c-3 26 -4 27 -78 29 -51 2 -84 -2 -101 -12z"></path>
<path d="M1960 1140 l0 -120 30 0 c29 0 30 2 30 45 0 41 2 45 24 45 16 0 36
-15 60 -45 29 -35 44 -45 67 -45 16 0 29 3 29 6 0 4 -15 25 -33 48 -52 64 -52
63 -8 120 23 29 41 56 41 59 0 4 -13 7 -28 7 -22 0 -39 -12 -71 -50 -24 -28
-51 -50 -62 -50 -16 0 -19 7 -19 50 0 49 -1 50 -30 50 l-30 0 0 -120z"></path>
<path d="M2440 1140 l0 -120 30 0 c29 0 30 2 30 45 0 41 2 45 24 45 17 0 36
-14 62 -45 28 -34 43 -45 65 -45 36 0 36 11 1 52 -60 71 -59 63 -13 117 22 27
41 54 41 60 0 6 -13 11 -29 11 -22 0 -36 -10 -62 -45 -55 -73 -89 -73 -89 1 0
42 -1 44 -30 44 l-30 0 0 -120z"></path>
<path d="M2780 1140 l0 -120 30 0 30 0 0 120 0 120 -30 0 -30 0 0 -120z"></path>
<path d="M2950 1140 l0 -120 30 0 29 0 3 76 3 76 60 -75 c52 -66 64 -76 93
-76 l32 -1 0 120 0 120 -30 0 -29 0 -3 -77 -3 -78 -63 78 c-53 64 -68 77 -93
77 l-29 0 0 -120z"></path>
<path d="M3365 1251 c-43 -18 -60 -50 -60 -112 0 -50 4 -63 26 -85 32 -32 94
-45 169 -36 l55 7 3 58 3 57 -31 0 c-28 0 -30 -3 -30 -35 0 -35 0 -35 -46 -35
-70 0 -84 12 -84 70 0 64 18 75 112 67 l69 -6 -3 27 c-3 27 -4 27 -83 29 -44
1 -89 -2 -100 -6z"></path>
<path d="M1037 803 c-18 -17 -5 -44 28 -57 39 -17 44 -30 18 -46 -16 -10 -16
-10 2 -8 14 2 20 11 20 28 0 20 -7 27 -32 35 -33 9 -45 38 -20 48 6 3 7 6 1 6
-6 1 -14 -2 -17 -6z"></path>
<path d="M1070 806 c0 -2 7 -7 16 -10 8 -3 12 -2 9 4 -6 10 -25 14 -25 6z"></path>
<path d="M1170 750 c0 -35 3 -61 6 -57 7 7 7 107 0 115 -3 3 -6 -23 -6 -58z"></path>
<path d="M1219 802 c8 -6 12 -20 9 -37 -4 -17 -2 -23 4 -17 14 14 6 55 -12 59
-12 4 -13 3 -1 -5z"></path>
<path d="M1312 798 c-26 -26 -9 -109 23 -108 5 0 2 5 -7 11 -12 7 -18 22 -18
49 0 27 6 42 18 49 9 6 12 11 7 11 -6 0 -16 -5 -23 -12z"></path>
<path d="M1363 800 c11 -7 17 -24 17 -50 0 -26 -6 -43 -17 -50 -16 -10 -16
-10 2 -8 17 3 20 11 20 58 0 47 -3 55 -20 58 -18 2 -18 2 -2 -8z"></path>
<path d="M1481 748 c1 -68 6 -61 11 15 2 26 0 47 -4 47 -5 0 -7 -28 -7 -62z"></path>
<path d="M1662 800 c0 -8 4 -26 8 -40 6 -20 8 -21 8 -5 0 11 -3 29 -8 40 -5
12 -8 14 -8 5z"></path>
<path d="M1715 789 c-4 -11 -4 -23 -1 -26 3 -4 6 2 6 13 0 16 2 17 10 4 8 -13
10 -13 10 2 0 26 -18 31 -25 7z"></path>
<path d="M1782 790 c0 -14 2 -19 5 -12 2 6 2 18 0 25 -3 6 -5 1 -5 -13z"></path>
<path d="M1853 750 c0 -36 2 -50 4 -32 4 29 7 32 38 32 31 0 34 -3 38 -32 2
-18 4 -4 4 32 0 36 -2 53 -4 38 -4 -24 -9 -28 -38 -28 -29 0 -34 4 -38 28 -2
15 -4 -2 -4 -38z"></path>
<path d="M2011 748 c-14 -45 -16 -57 -6 -44 8 11 15 27 15 35 0 9 7 28 14 44
8 15 11 27 6 27 -4 0 -17 -28 -29 -62z"></path>
<path d="M2168 763 c5 -76 10 -83 11 -15 0 34 -2 62 -7 62 -4 0 -6 -21 -4 -47z"></path>
<path d="M2277 803 c-18 -17 -5 -42 28 -53 34 -11 48 -42 25 -53 -6 -3 -5 -4
2 -3 7 1 14 12 16 24 3 18 -5 26 -32 37 -36 15 -47 39 -23 48 6 3 7 6 1 6 -6
1 -14 -2 -17 -6z"></path>
<path d="M2320 806 c0 -2 7 -7 16 -10 8 -3 12 -2 9 4 -6 10 -25 14 -25 6z"></path>
<path d="M2496 778 c10 -18 20 -46 24 -63 l7 -30 4 37 c3 20 1 35 -3 32 -4 -3
-14 9 -23 26 -8 16 -18 30 -21 30 -2 0 3 -15 12 -32z"></path>
<path d="M2546 795 c-9 -26 -7 -32 5 -12 6 10 9 21 6 23 -2 3 -7 -2 -11 -11z"></path>
<path d="M2624 786 c-11 -44 -1 -91 21 -94 18 -2 18 -2 3 8 -12 7 -18 24 -18
50 0 27 6 42 18 49 16 10 16 10 0 11 -10 0 -20 -10 -24 -24z"></path>
<path d="M2683 799 c11 -7 17 -22 17 -49 0 -27 -6 -42 -17 -49 -10 -6 -13 -11
-8 -11 21 0 35 24 35 60 0 36 -14 60 -34 60 -6 0 -3 -5 7 -11z"></path>
<path d="M2773 775 c0 -22 2 -30 4 -17 2 12 2 30 0 40 -3 9 -5 -1 -4 -23z"></path>
<path d="M2852 764 c-1 -27 -7 -55 -14 -62 -9 -9 -9 -12 0 -12 18 0 24 21 19
76 l-3 49 -2 -51z"></path>
<path d="M2933 750 c0 -36 2 -53 4 -37 2 15 11 27 18 27 8 0 21 -12 29 -27 8
-16 15 -23 15 -18 1 6 -3 17 -9 25 -5 9 -5 19 1 27 14 17 7 56 -11 60 -12 4
-12 3 -2 -5 20 -14 10 -47 -15 -50 -18 -3 -22 3 -26 30 -2 18 -4 4 -4 -32z"></path>
<path d="M3066 794 c-8 -22 0 -32 40 -49 38 -16 43 -29 17 -44 -10 -6 -13 -11
-7 -11 18 0 35 26 28 43 -3 9 -19 19 -35 22 -37 8 -47 25 -24 42 16 11 16 13
3 13 -9 0 -19 -7 -22 -16z"></path>
<path d="M3110 806 c0 -2 7 -7 16 -10 8 -3 12 -2 9 4 -6 10 -25 14 -25 6z"></path>
<path d="M1746 726 c4 -31 11 -43 19 -34 3 2 6 18 9 34 2 16 1 21 -1 12 -2
-10 -8 -18 -13 -18 -5 0 -11 8 -13 18 -2 9 -3 4 -1 -12z"></path>
<path d="M2060 744 c0 -11 7 -29 15 -40 13 -17 14 -16 3 16 -14 43 -18 49 -18
24z"></path>
<path d="M1700 724 c0 -16 -2 -17 -10 -4 -8 13 -10 13 -10 -2 0 -26 18 -31 25
-7 4 11 4 23 1 26 -3 4 -6 -2 -6 -13z"></path>
<path d="M2780 711 c0 -10 19 -25 25 -20 1 2 -3 10 -11 17 -8 7 -14 8 -14 3z"></path>
<path d="M1037 699 c7 -7 15 -10 18 -7 3 3 -2 9 -12 12 -14 6 -15 5 -6 -5z"></path>
<path d="M2277 699 c7 -7 15 -10 18 -7 3 3 -2 9 -12 12 -14 6 -15 5 -6 -5z"></path>
<path d="M3068 698 c5 -5 16 -8 23 -6 8 3 3 7 -10 11 -17 4 -21 3 -13 -5z"></path>
</g>
</svg></svg></g></svg>